HIERARCHY
ROOT Hips
{
	OFFSET 305.588898 92.559578 -272.186401
	CHANNELS 6 Xposition Yposition Zposition Zrotation Yrotation Xrotation 
	JOINT RightUpLeg
	{
		OFFSET 0.103462 1.857825 10.548491
		CHANNELS 3 Xrotation Yrotation Zrotation
		JOINT RightLeg
		{
			OFFSET 43.500000 -0.000038 -0.000006
			CHANNELS 3 Xrotation Yrotation Zrotation
			JOINT RightFoot
			{
				OFFSET 42.372196 0.000034 -0.000012
				CHANNELS 3 Xrotation Yrotation Zrotation
				JOINT RightToe
				{
					OFFSET 17.299999 -0.000001 -0.000008
					CHANNELS 3 Xrotation Yrotation Zrotation
					End Site
					{
						OFFSET 0.000000 0.000000 0.000000
					}
				}
			}
		}
	}
	JOINT LeftUpLeg
	{
		OFFSET 0.103456 1.857821 -10.548490
		CHANNELS 3 Xrotation Yrotation Zrotation
		JOINT LeftLeg
		{
			OFFSET 43.500038 -0.000011 0.000011
			CHANNELS 3 Xrotation Yrotation Zrotation
			JOINT LeftFoot
			{
				OFFSET 42.372265 0.000004 0.000029
				CHANNELS 3 Xrotation Yrotation Zrotation
				JOINT LeftToe
				{
					OFFSET 17.299988 -0.000007 0.000004
					CHANNELS 3 Xrotation Yrotation Zrotation
					End Site
					{
						OFFSET 0.000000 0.000000 0.000000
					}
				}
			}
		}
	}
	JOINT Spine
	{
		OFFSET 6.901963 -2.603729 -0.000012
		CHANNELS 3 Xrotation Yrotation Zrotation
		JOINT Spine1
		{
			OFFSET 12.588106 0.000010 0.000003
			CHANNELS 3 Xrotation Yrotation Zrotation
			JOINT Spine2
			{
				OFFSET 12.343199 -0.000001 -0.000002
				CHANNELS 3 Xrotation Yrotation Zrotation
				JOINT Neck
				{
					OFFSET 25.832895 -0.000006 0.000023
					CHANNELS 3 Xrotation Yrotation Zrotation
					JOINT Head
					{
						OFFSET 11.766605 0.000011 -0.000027
						CHANNELS 3 Xrotation Yrotation Zrotation
						End Site
						{
							OFFSET 0.000000 0.000000 0.000000
						}
					}
				}
				JOINT RightShoulder
				{
					OFFSET 19.745903 -1.480368 6.000127
					CHANNELS 3 Xrotation Yrotation Zrotation
					JOINT RightArm
					{
						OFFSET 11.284108 0.000010 -0.000010
						CHANNELS 3 Xrotation Yrotation Zrotation
						JOINT RightForeArm
						{
							OFFSET 33.000069 0.000000 0.000030
							CHANNELS 3 Xrotation Yrotation Zrotation
							JOINT RightHand
							{
								OFFSET 25.199997 0.000019 0.000001
								CHANNELS 3 Xrotation Yrotation Zrotation
								End Site
								{
									OFFSET 0.000000 0.000000 0.000000
								}
							}
						}
					}
				}
				JOINT LeftShoulder
				{
					OFFSET 19.746101 -1.480371 -6.000072
					CHANNELS 3 Xrotation Yrotation Zrotation
					JOINT LeftArm
					{
						OFFSET 11.284140 -0.000007 -0.000004
						CHANNELS 3 Xrotation Yrotation Zrotation
						JOINT LeftForeArm
						{
							OFFSET 33.000080 0.000016 -0.000002
							CHANNELS 3 Xrotation Yrotation Zrotation
							JOINT LeftHand
							{
								OFFSET 25.199766 0.000146 0.000422
								CHANNELS 3 Xrotation Yrotation Zrotation
								End Site
								{
									OFFSET 0.000000 0.000000 0.000000
								}
							}
						}
					}
				}
			}
		}
	}
}
MOTION
Frames: 7
Frame Time: 0.033333
-348.853302 86.650169 -280.710510 93.827839 -3.164849 -104.375973 157.779788 -23.911604 175.388316 -24.386994 -2.716178 -5.701144 73.911499 -1.154968 -17.712873 21.454558 0.003113 0.000019 177.121121 8.177902 163.305534 -64.340799 -4.432632 4.643846 69.504982 -2.049173 3.318422 21.454550 -0.003083 -0.000003 9.536861 -1.391902 -0.613075 9.079381 -2.731351 -1.333824 8.760974 -2.739493 -1.317293 19.381010 -2.251104 10.652506 -3.356042 -13.617270 14.332423 -167.172391 -71.404218 -14.576107 -9.807750 39.465881 26.248899 -69.651790 -14.056315 2.447132 -3.794001 4.251029 27.927979 172.688001 76.133919 -5.970867 18.326622 -61.510573 -72.353382 -47.389300 10.483387 -1.368301 13.793167 -6.110441 -56.798436 
-352.517395 84.019890 -288.224213 92.213332 -7.025571 -107.081049 157.987904 -22.056201 171.141741 -40.291942 -3.515036 -3.027260 73.989267 -1.448930 -12.277006 21.454560 0.003107 0.000017 179.014299 7.799096 157.411586 -75.154067 -4.480400 1.979726 70.781455 -0.303572 2.807655 21.454560 -0.003103 0.000003 9.897824 -1.518430 -0.882185 9.810528 -2.956489 -1.890578 9.492155 -2.967990 -1.872680 19.675897 -4.721337 11.638329 -4.227949 -14.797791 15.790803 -161.642328 -72.543603 -20.254176 -8.171967 38.173323 25.275989 -69.714580 -14.262833 2.464052 -2.771237 4.626417 28.792406 167.623074 77.216976 -11.099900 19.349487 -62.151129 -68.999247 -46.443975 11.074451 -1.379345 13.767480 -5.842249 -55.470948 
-356.204315 81.584007 -295.834595 90.981350 -11.620139 -107.700930 160.529991 -18.425197 172.436308 -53.897641 -6.076706 -3.106131 85.202635 0.093782 -11.141946 21.454558 0.003096 0.000015 -178.496066 6.810190 154.371510 -84.863413 -3.232990 -0.452588 73.667135 0.828520 1.192752 21.454546 -0.003092 -0.000009 10.606818 -1.844601 -1.183662 11.245940 -3.565217 -2.542397 10.927499 -3.580648 -2.520835 20.390526 -4.049178 11.800210 -5.085846 -16.981793 16.677469 -163.897315 -73.736899 -17.927186 -11.767130 36.521855 22.040353 -67.204806 -15.828127 2.469827 -3.745439 3.035238 31.326929 169.708986 74.999985 -9.049061 19.905698 -62.758695 -64.371398 -43.846379 12.227098 -1.380428 8.918607 -1.049938 -56.206095 
-359.050598 80.765694 -302.195892 89.440788 -13.338878 -107.770024 163.636333 -12.903698 168.540478 -58.701323 -2.361702 -3.358618 91.719653 0.830203 -10.800237 21.454557 0.003119 0.000020 179.118118 4.258307 156.720466 -92.223707 -3.569795 -1.186295 75.229630 0.773767 -0.776881 21.454551 -0.003088 -0.000011 10.774856 -2.054693 -1.389458 11.595458 -3.959576 -2.979867 11.277007 -3.977616 -2.955916 21.011656 -1.790152 11.541673 -5.807901 -18.997842 17.052090 -170.449488 -73.586218 -11.207126 -17.429758 34.723305 16.833927 -67.536924 -16.299840 2.516111 -5.005567 1.409293 33.801612 174.651967 72.549709 -4.058612 17.659428 -63.512228 -61.626884 -40.121402 12.673314 -1.308729 3.524551 6.993138 -47.362581 
-361.421600 80.201210 -307.932312 89.224537 -12.324835 -107.079095 164.610947 -9.886597 169.121918 -61.884068 -2.167095 -4.213557 97.113528 1.916299 -10.501113 21.454558 0.003112 0.000017 172.926962 0.395295 163.646674 -96.769246 -3.899966 1.069603 77.273475 -0.423527 0.588604 21.454541 -0.003100 -0.000002 10.416889 -1.728271 -1.774018 10.878611 -3.281883 -3.704297 10.560673 -3.304329 -3.684431 22.119002 -0.600110 11.370489 -7.189456 -18.833625 17.109769 -175.322295 -72.067819 -6.193504 -23.032311 33.553031 11.671959 -70.715018 -15.523937 2.593420 -5.609109 1.250646 36.460629 178.894033 72.742403 0.299986 20.452638 -64.820128 -63.830959 -41.133581 12.593319 -1.330101 6.750486 8.218621 -38.870969 
-363.417786 81.286789 -313.359985 89.077135 -10.982612 -106.810054 168.149135 -8.097904 166.534232 -59.608400 -1.960382 -3.594557 99.310445 1.801178 -8.838629 21.454557 0.003102 0.000017 166.095434 -2.739399 171.368094 -95.593886 -3.698312 3.519145 77.497560 -2.330630 0.077272 21.454551 -0.003087 -0.000008 10.131837 -1.568879 -2.240262 10.313388 -2.931698 -4.612992 9.995960 -2.959612 -4.595246 21.354170 2.503494 12.004700 -6.776601 -19.714508 17.845094 -177.742013 -73.028492 -3.719088 -27.575637 35.319912 5.499492 -76.337343 -12.902916 2.648792 -6.890294 -0.170772 40.661786 -177.067012 72.102899 4.439592 21.399118 -64.874933 -65.213997 -43.259672 12.317877 -1.369939 7.905427 3.791987 -38.371115 
-365.077515 83.026833 -318.786987 88.354282 -9.568757 -106.803955 172.944775 -6.066696 165.109906 -54.160914 -3.612770 -2.919142 98.935597 1.543614 -6.504850 21.454560 0.003108 0.000017 160.020431 -3.901391 177.354878 -89.820560 -3.013502 2.926322 76.249773 -1.661656 1.144868 21.454558 -0.003087 0.000003 9.778262 -1.429478 -2.917692 9.614119 -2.611509 -5.945565 9.297539 -2.647435 -5.929774 20.666897 2.991990 12.620205 -6.357408 -20.726470 18.658661 -179.222415 -72.542012 -2.191811 -29.455833 37.056853 1.720936 -81.797697 -10.389238 2.710248 -8.502083 -0.916112 41.933506 -174.720965 72.935813 6.859486 22.931515 -64.691099 -67.098679 -44.720804 12.023445 -1.391918 10.345497 1.313117 -36.511466 
